<svg width="32" height="32" xmlns="http://www.w3.org/2000/svg" xmlns:xlink="http://www.w3.org/1999/xlink" xml:space="preserve" overflow="hidden"><g transform="translate(-96 -96)"><path d="M122.125 123.546 122.125 126.5C122.125 126.776 121.901 127 121.625 127 121.349 127 121.125 126.776 121.125 126.5L121.125 123.546C121.126 122.163 120.438 120.869 119.29 120.096 119.061 119.941 119.002 119.63 119.157 119.401 119.312 119.172 119.624 119.112 119.853 119.268 121.274 120.227 122.126 121.831 122.125 123.546ZM113.938 119.901 112.302 121.147C112.215 121.213 112.109 121.249 112 121.25L112 121.25C111.916 121.25 111.833 121.228 111.759 121.188 111.702 121.157 111.902 121.305 108.727 118.884 108.41 119.091 108.058 119.238 107.688 119.317L107.688 121.567C108.686 121.843 109.271 122.876 108.995 123.874 108.718 124.872 107.686 125.457 106.688 125.181 105.689 124.905 105.104 123.872 105.38 122.874 105.556 122.239 106.052 121.743 106.688 121.567L106.688 119.401C104.532 119.581 102.874 121.383 102.875 123.546L102.875 126.5C102.875 126.776 102.651 127 102.375 127 102.099 127 101.875 126.776 101.875 126.5L101.875 123.546C101.874 120.698 104.182 118.387 107.031 118.386 107.032 118.386 107.034 118.386 107.036 118.386 108.188 118.387 109.123 117.454 109.125 116.302L109.125 116.17C106.878 115.098 105.412 112.868 105.317 110.38 104.402 110.162 103.754 109.345 103.75 108.404L103.75 102.312C103.751 101.236 104.535 100.32 105.598 100.151 106.493 98.2234 108.428 96.9927 110.553 97L114.841 97C117.861 97.0034 120.309 99.451 120.312 102.471L120.312 108.404C120.312 108.68 120.089 108.904 119.812 108.904 119.536 108.904 119.312 108.68 119.312 108.404L119.312 102.471C119.31 100.003 117.31 98.0028 114.841 98L110.553 98C108.723 97.9945 107.075 99.1104 106.402 100.812 106.325 101.002 106.142 101.125 105.938 101.125 105.282 101.125 104.75 101.657 104.75 102.312L104.75 108.404C104.752 108.79 104.969 109.143 105.312 109.319L105.312 106.077C105.315 104.145 106.88 102.579 108.812 102.577L115.188 102.577C117.12 102.579 118.685 104.145 118.688 106.077L118.688 110.171C118.688 114.519 114.438 117.822 110.114 116.549 110.068 117.149 109.845 117.722 109.474 118.196L112 120.121 113.333 119.106C113.549 118.934 113.863 118.969 114.035 119.185 114.207 119.401 114.171 119.716 113.955 119.888 113.95 119.892 113.944 119.896 113.939 119.901ZM112 115.821C115.14 115.817 117.684 113.273 117.688 110.133L117.688 106.077C117.688 104.696 116.568 103.577 115.188 103.577L108.812 103.577C107.432 103.577 106.312 104.696 106.312 106.077L106.312 110.133C106.316 113.273 108.86 115.817 112 115.821ZM107.188 122.5C106.704 122.5 106.312 122.892 106.312 123.375 106.312 123.858 106.704 124.25 107.188 124.25 107.671 124.25 108.062 123.858 108.062 123.375 108.062 122.892 107.671 122.5 107.188 122.5ZM117.312 121.548C117.312 118.696 117.355 118.744 117.188 118.554 117.101 118.453 116.977 118.392 116.844 118.383 116.157 118.345 115.533 117.971 115.175 117.383 115.038 117.144 114.732 117.061 114.493 117.198 114.253 117.335 114.17 117.641 114.307 117.88 114.312 117.888 114.316 117.896 114.321 117.903 114.763 118.627 115.483 119.136 116.312 119.312L116.312 121.545C115.044 121.787 114.126 122.896 114.125 124.188L114.125 126.5C114.125 126.776 114.349 127 114.625 127 114.901 127 115.125 126.776 115.125 126.5L115.125 124.188C115.125 123.256 115.881 122.5 116.812 122.5 117.744 122.5 118.5 123.256 118.5 124.188L118.5 126.5C118.5 126.776 118.724 127 119 127 119.276 127 119.5 126.776 119.5 126.5L119.5 124.188C119.498 122.897 118.58 121.789 117.312 121.548Z" stroke="#4EA72E" stroke-width="1.37634" fill="#FFFFFF"/></g></svg>