<svg width="32" height="32" xmlns="http://www.w3.org/2000/svg" xmlns:xlink="http://www.w3.org/1999/xlink" xml:space="preserve" overflow="hidden"><g transform="translate(-380 -136)"><path d="M401.75 140.906 400.187 140.906C400.042 140.194 399.411 139.656 398.656 139.656L393.031 139.656C392.277 139.656 391.645 140.194 391.5 140.906L389.938 140.906C388.886 140.906 388.031 141.761 388.031 142.812L388.031 160.875C388.031 161.926 388.886 162.781 389.938 162.781L401.75 162.781C402.801 162.781 403.656 161.926 403.656 160.875L403.656 142.812C403.656 141.761 402.801 140.906 401.75 140.906ZM393.031 140.281 398.656 140.281C399.173 140.281 399.594 140.702 399.594 141.219 399.594 141.736 399.173 142.156 398.656 142.156L393.031 142.156C392.514 142.156 392.094 141.736 392.094 141.219 392.094 140.702 392.514 140.281 393.031 140.281ZM403.031 160.875C403.031 161.581 402.457 162.156 401.75 162.156L389.938 162.156C389.231 162.156 388.656 161.581 388.656 160.875L388.656 142.812C388.656 142.106 389.231 141.531 389.938 141.531L391.5 141.531C391.645 142.244 392.277 142.781 393.031 142.781L398.656 142.781C399.411 142.781 400.042 142.244 400.187 141.531L401.75 141.531C402.457 141.531 403.031 142.106 403.031 142.812L403.031 160.875Z" stroke="#A02B93" stroke-width="0.150235" fill="#FFFFFF"/><path d="M393.656 147.625 394.906 147.625 394.906 148.719C394.906 148.891 395.046 149.031 395.219 149.031L396.781 149.031C396.954 149.031 397.094 148.891 397.094 148.719L397.094 147.625 398.344 147.625C398.516 147.625 398.656 147.485 398.656 147.312L398.656 145.75C398.656 145.577 398.516 145.438 398.344 145.438L397.094 145.438 397.094 144.344C397.094 144.171 396.954 144.031 396.781 144.031L395.219 144.031C395.046 144.031 394.906 144.171 394.906 144.344L394.906 145.438 393.656 145.438C393.484 145.438 393.344 145.577 393.344 145.75L393.344 147.312C393.344 147.485 393.484 147.625 393.656 147.625ZM393.969 146.062 395.219 146.062C395.391 146.062 395.531 145.923 395.531 145.75L395.531 144.656 396.469 144.656 396.469 145.75C396.469 145.923 396.609 146.062 396.781 146.062L398.031 146.062 398.031 147 396.781 147C396.609 147 396.469 147.14 396.469 147.312L396.469 148.406 395.531 148.406 395.531 147.312C395.531 147.14 395.391 147 395.219 147L393.969 147 393.969 146.062Z" stroke="#A02B93" stroke-width="0.150235" fill="#FFFFFF"/><path d="M390.844 151.219 395.844 151.219C396.016 151.219 396.156 151.079 396.156 150.906 396.156 150.734 396.016 150.594 395.844 150.594L390.844 150.594C390.671 150.594 390.531 150.734 390.531 150.906 390.531 151.079 390.671 151.219 390.844 151.219Z" stroke="#A02B93" stroke-width="0.150235" fill="#FFFFFF"/><path d="M400.844 152.469 390.844 152.469C390.671 152.469 390.531 152.609 390.531 152.781 390.531 152.954 390.671 153.094 390.844 153.094L400.844 153.094C401.016 153.094 401.156 152.954 401.156 152.781 401.156 152.609 401.016 152.469 400.844 152.469Z" stroke="#A02B93" stroke-width="0.150235" fill="#FFFFFF"/><path d="M400.844 154.344 390.844 154.344C390.671 154.344 390.531 154.484 390.531 154.656 390.531 154.829 390.671 154.969 390.844 154.969L400.844 154.969C401.016 154.969 401.156 154.829 401.156 154.656 401.156 154.484 401.016 154.344 400.844 154.344Z" stroke="#A02B93" stroke-width="0.150235" fill="#FFFFFF"/><path d="M400.844 156.219 390.844 156.219C390.671 156.219 390.531 156.359 390.531 156.531 390.531 156.704 390.671 156.844 390.844 156.844L400.844 156.844C401.016 156.844 401.156 156.704 401.156 156.531 401.156 156.359 401.016 156.219 400.844 156.219Z" stroke="#A02B93" stroke-width="0.150235" fill="#FFFFFF"/><path d="M400.844 158.094 390.844 158.094C390.671 158.094 390.531 158.234 390.531 158.406 390.531 158.579 390.671 158.719 390.844 158.719L400.844 158.719C401.016 158.719 401.156 158.579 401.156 158.406 401.156 158.234 401.016 158.094 400.844 158.094Z" stroke="#A02B93" stroke-width="0.150235" fill="#FFFFFF"/><path d="M400.844 159.969 390.844 159.969C390.671 159.969 390.531 160.109 390.531 160.281 390.531 160.454 390.671 160.594 390.844 160.594L400.844 160.594C401.016 160.594 401.156 160.454 401.156 160.281 401.156 160.109 401.016 159.969 400.844 159.969Z" stroke="#A02B93" stroke-width="0.150235" fill="#FFFFFF"/><path d="M407.406 142.156C406.372 142.156 405.531 142.997 405.531 144.031 405.531 145.065 406.372 145.906 407.406 145.906 408.44 145.906 409.281 145.065 409.281 144.031 409.281 142.997 408.44 142.156 407.406 142.156ZM407.406 145.281C406.717 145.281 406.156 144.721 406.156 144.031 406.156 143.342 406.717 142.781 407.406 142.781 408.095 142.781 408.656 143.342 408.656 144.031 408.656 144.721 408.095 145.281 407.406 145.281Z" stroke="#A02B93" stroke-width="0.150235" fill="#FFFFFF"/><path d="M384.281 156.219C383.42 156.219 382.719 156.92 382.719 157.781 382.719 158.643 383.42 159.344 384.281 159.344 385.143 159.344 385.844 158.643 385.844 157.781 385.844 156.92 385.143 156.219 384.281 156.219ZM384.281 158.719C383.764 158.719 383.344 158.298 383.344 157.781 383.344 157.264 383.764 156.844 384.281 156.844 384.798 156.844 385.219 157.264 385.219 157.781 385.219 158.298 384.798 158.719 384.281 158.719Z" stroke="#A02B93" stroke-width="0.150235" fill="#FFFFFF"/><path d="M405.219 139.5C405.219 139.759 405.009 139.969 404.75 139.969 404.491 139.969 404.281 139.759 404.281 139.5 404.281 139.241 404.491 139.031 404.75 139.031 405.009 139.031 405.219 139.241 405.219 139.5Z" stroke="#A02B93" stroke-width="0.150235" fill="#FFFFFF"/><path d="M408.656 149.188C408.656 149.446 408.446 149.656 408.188 149.656 407.929 149.656 407.719 149.446 407.719 149.188 407.719 148.929 407.929 148.719 408.188 148.719 408.446 148.719 408.656 148.929 408.656 149.188Z" stroke="#A02B93" stroke-width="0.150235" fill="#FFFFFF"/><path d="M406.156 157C406.156 157.259 405.946 157.469 405.688 157.469 405.429 157.469 405.219 157.259 405.219 157 405.219 156.741 405.429 156.531 405.688 156.531 405.946 156.531 406.156 156.741 406.156 157Z" stroke="#A02B93" stroke-width="0.150235" fill="#FFFFFF"/><path d="M384.594 140.125C384.594 140.384 384.384 140.594 384.125 140.594 383.866 140.594 383.656 140.384 383.656 140.125 383.656 139.866 383.866 139.656 384.125 139.656 384.384 139.656 384.594 139.866 384.594 140.125Z" stroke="#A02B93" stroke-width="0.150235" fill="#FFFFFF"/><path d="M386.156 149.5C386.156 149.759 385.946 149.969 385.688 149.969 385.429 149.969 385.219 149.759 385.219 149.5 385.219 149.241 385.429 149.031 385.688 149.031 385.946 149.031 386.156 149.241 386.156 149.5Z" stroke="#A02B93" stroke-width="0.150235" fill="#FFFFFF"/><path d="M400.844 164.5C400.844 164.759 400.634 164.969 400.375 164.969 400.116 164.969 399.906 164.759 399.906 164.5 399.906 164.241 400.116 164.031 400.375 164.031 400.634 164.031 400.844 164.241 400.844 164.5Z" stroke="#A02B93" stroke-width="0.150235" fill="#FFFFFF"/></g></svg>